<svg  viewBox="0 0 39 38" fill="none" xmlns="http://www.w3.org/2000/svg">
<g clip-path="url(#clip0_14022_6)">
<path d="M36 19C36 28.665 28.165 36.5 18.5 36.5C8.83502 36.5 1 28.665 1 19C1 9.33502 8.83502 1.5 18.5 1.5C28.165 1.5 36 9.33502 36 19Z" stroke="currentColor" stroke-width="2"/>
<path d="M36.093 13.2722C35.569 11.6616 34.832 10.1483 33.9125 8.76562L17.7188 25.6324L17.7513 27.5095L18.5157 27.5046L36.093 13.2722Z" fill="currentColor"/>
<path d="M39 6.5C38.7631 5.27238 36.5 4.5001 36.5 4.5001C36.0497 4.05499 33.4503 6.55569 33 7.0008L18.073 22.5005L11.5 15.0005C11.049 14.5554 9.95066 14.0554 9.5 14.5005L7.36115 15.9298C6.91087 16.3745 6.91087 17.096 7.36115 17.5408L17.1214 27.1834C17.3815 27.4405 17.7341 27.5441 18.073 27.5041C18.4119 27.5437 18.7646 27.4405 19.0247 27.1834L37.0296 9.39449C37.4799 8.94938 39.2591 7.84266 39 6.5Z" fill="currentColor"/>
<path d="M19.0243 27.182L37.0292 9.39313C38.5 8.49972 39.4503 6.94483 39 6.49972C38.5497 6.05461 36.4909 7.24972 36.4909 7.24972L17.9698 25.4667L7.76964 15.524L7.36116 15.9281C6.91087 16.3728 6.91087 17.0943 7.36116 17.5391L17.121 27.182C17.3811 27.4391 17.7337 27.5427 18.0727 27.5028C18.4116 27.5427 18.7642 27.4395 19.0243 27.182Z" fill="currentColor"/>
</g>
<defs>
<clipPath id="clip0_14022_6">
<rect width="39" height="37" fill="currentColor" transform="translate(0 0.5)"/>
</clipPath>
</defs>
</svg>
